<svg xmlns="http://www.w3.org/2000/svg" width="640" height="638" viewBox="0 0 640 638" role="img">
  <style>
    .t { font: 600 27px system-ui, -apple-system, "Segoe UI", sans-serif; fill: currentColor; }
    .s { font: 400 14px system-ui, -apple-system, "Segoe UI", sans-serif; fill: currentColor; opacity:.6; }
    .out { font: 400 16px system-ui, -apple-system, "Segoe UI", sans-serif; fill: currentColor; }
    .chip { font: 700 18px system-ui, -apple-system, "Segoe UI", sans-serif; fill: #fff; }
    .obig { font: 700 40px system-ui, -apple-system, "Segoe UI", sans-serif; fill: #fff; }
    .olab { font: 500 13px system-ui, -apple-system, "Segoe UI", sans-serif; fill: currentColor; opacity:.6; }
    .f  { font: 400 14px system-ui, -apple-system, "Segoe UI", sans-serif; fill: currentColor; opacity:.75; }
    .b  { fill: none; stroke: currentColor; stroke-opacity:.2; stroke-width:1.5; }
  </style>
  <rect class="b" x="12" y="12" width="616" height="614" rx="16"/>
  <text x="40" y="66" class="t">Bakuchiol</text>
  <text x="40" y="90" class="s">bakuchiol · evidence by outcome</text>
  <rect x="522" y="44" width="72" height="72" rx="14" fill="#4f9d3f"/><text x="558" y="92" text-anchor="middle" class="obig">B</text><text x="558" y="132" text-anchor="middle" class="olab">overall</text>
  <line x1="40" y1="120" x2="600" y2="120" stroke="currentColor" stroke-opacity=".18"/>
  <rect x="40" y="128" width="34" height="34" rx="7" fill="#4f9d3f"/><text x="57" y="151" text-anchor="middle" class="chip">B</text><text x="90" y="151" class="out">Topical: fine wrinkles / photoaging appearance</text><rect x="40" y="174" width="34" height="34" rx="7" fill="#4f9d3f"/><text x="57" y="197" text-anchor="middle" class="chip">B</text><text x="90" y="197" class="out">Hyperpigmentation appearance</text><rect x="40" y="220" width="34" height="34" rx="7" fill="#4f9d3f"/><text x="57" y="243" text-anchor="middle" class="chip">B</text><text x="90" y="243" class="out">Tolerability vs retinol (fewer side effects)</text><rect x="40" y="266" width="34" height="34" rx="7" fill="#4f9d3f"/><text x="57" y="289" text-anchor="middle" class="chip">B</text><text x="90" y="289" class="out">Collagen/ECM gene expression (mechanism-level)</text><rect x="40" y="312" width="34" height="34" rx="7" fill="#4f9d3f"/><text x="57" y="335" text-anchor="middle" class="chip">B</text><text x="90" y="335" class="out">Antioxidant / anti-lipoperoxidation</text><rect x="40" y="358" width="34" height="34" rx="7" fill="#c08a1e"/><text x="57" y="381" text-anchor="middle" class="chip">C</text><text x="90" y="381" class="out">Acne appearance</text><rect x="40" y="404" width="34" height="34" rx="7" fill="#8a9098"/><text x="57" y="427" text-anchor="middle" class="chip">–</text><text x="90" y="427" class="out">Pregnancy / breastfeeding safety</text><rect x="40" y="450" width="34" height="34" rx="7" fill="#8a9098"/><text x="57" y="473" text-anchor="middle" class="chip">–</text><text x="90" y="464" class="out">Purity, sourcing, and photosensitising contaminants</text><text x="90" y="484" class="out">(safety)</text><rect x="40" y="496" width="34" height="34" rx="7" fill="#b23b3b"/><text x="57" y="519" text-anchor="middle" class="chip">F</text><text x="90" y="519" class="out">Systemic / oral use</text>
  <line x1="40" y1="578" x2="600" y2="578" stroke="currentColor" stroke-opacity=".18"/>
  <text x="40" y="606" class="f">Based on 9 cited sources · 6 DOI-verified · grades are Vallydia's evidence assessment (CC-BY-4.0)</text>
</svg>
