<svg xmlns="http://www.w3.org/2000/svg" width="640" height="454" viewBox="0 0 640 454" role="img">
  <style>
    .t { font: 600 27px system-ui, -apple-system, "Segoe UI", sans-serif; fill: currentColor; }
    .s { font: 400 14px system-ui, -apple-system, "Segoe UI", sans-serif; fill: currentColor; opacity:.6; }
    .out { font: 400 16px system-ui, -apple-system, "Segoe UI", sans-serif; fill: currentColor; }
    .chip { font: 700 18px system-ui, -apple-system, "Segoe UI", sans-serif; fill: #fff; }
    .obig { font: 700 40px system-ui, -apple-system, "Segoe UI", sans-serif; fill: #fff; }
    .olab { font: 500 13px system-ui, -apple-system, "Segoe UI", sans-serif; fill: currentColor; opacity:.6; }
    .f  { font: 400 14px system-ui, -apple-system, "Segoe UI", sans-serif; fill: currentColor; opacity:.75; }
    .b  { fill: none; stroke: currentColor; stroke-opacity:.2; stroke-width:1.5; }
  </style>
  <rect class="b" x="12" y="12" width="616" height="430" rx="16"/>
  <text x="40" y="66" class="t">Palmitoyl Tripeptide-1 &amp; Palmitoyl Tripeptide-5</text>
  <text x="40" y="90" class="s">palmitoyl-tripeptide-1-5 · evidence by outcome</text>
  <rect x="522" y="44" width="72" height="72" rx="14" fill="#c08a1e"/><text x="558" y="92" text-anchor="middle" class="obig">C</text><text x="558" y="132" text-anchor="middle" class="olab">overall</text>
  <line x1="40" y1="120" x2="600" y2="120" stroke="currentColor" stroke-opacity=".18"/>
  <rect x="40" y="128" width="34" height="34" rx="7" fill="#c08a1e"/><text x="57" y="151" text-anchor="middle" class="chip">C</text><text x="90" y="142" class="out">Topical: appearance of fine lines / firmness —</text><text x="90" y="162" class="out">Palmitoyl Tripeptide-1</text><rect x="40" y="174" width="34" height="34" rx="7" fill="#c08a1e"/><text x="57" y="197" text-anchor="middle" class="chip">C</text><text x="90" y="188" class="out">Topical: appearance — Palmitoyl Tripeptide-5</text><text x="90" y="208" class="out">(SYN-COLL)</text><rect x="40" y="220" width="34" height="34" rx="7" fill="#c08a1e"/><text x="57" y="243" text-anchor="middle" class="chip">C</text><text x="90" y="243" class="out">Collagen / ECM stimulation (both)</text><rect x="40" y="266" width="34" height="34" rx="7" fill="#c56a2a"/><text x="57" y="289" text-anchor="middle" class="chip">D</text><text x="90" y="280" class="out">&quot;Collagen-boosting&quot; / &quot;rebuilds collagen&quot; structural</text><text x="90" y="300" class="out">claim</text><rect x="40" y="312" width="34" height="34" rx="7" fill="#8a9098"/><text x="57" y="335" text-anchor="middle" class="chip">–</text><text x="90" y="335" class="out">Safety (both, topical)</text>
  <line x1="40" y1="394" x2="600" y2="394" stroke="currentColor" stroke-opacity=".18"/>
  <text x="40" y="422" class="f">Based on 4 cited sources · 0 DOI-verified · grades are Vallydia's evidence assessment (CC-BY-4.0)</text>
</svg>
